<mxfile host="app.diagrams.net" agent="Mozilla/5.0 (Windows NT 10.0; Win64; x64) AppleWebKit/537.36 (KHTML, like Gecko) Chrome/129.0.0.0 Safari/537.36" version="24.7.17">
  <diagram name="페이지-1" id="QjFHKIoB7G8ksfEJgew0">
    <mxGraphModel dx="1468" dy="772" grid="1" gridSize="10" guides="1" tooltips="1" connect="1" arrows="1" fold="1" page="1" pageScale="1" pageWidth="827" pageHeight="1169" math="0" shadow="0">
      <root>
        <mxCell id="0" />
        <mxCell id="1" parent="0" />
        <mxCell id="xrplB6b8IGDxj66Je1dQ-1" value="&lt;div&gt;&amp;lt;&amp;lt;interface&amp;gt;&amp;gt;&lt;/div&gt;LottoController" style="rounded=1;whiteSpace=wrap;html=1;" vertex="1" parent="1">
          <mxGeometry x="20" y="300" width="120" height="60" as="geometry" />
        </mxCell>
        <mxCell id="xrplB6b8IGDxj66Je1dQ-17" style="edgeStyle=orthogonalEdgeStyle;rounded=0;orthogonalLoop=1;jettySize=auto;html=1;entryX=0.5;entryY=0;entryDx=0;entryDy=0;curved=0;dashed=1;strokeWidth=3;" edge="1" parent="1" source="xrplB6b8IGDxj66Je1dQ-2" target="xrplB6b8IGDxj66Je1dQ-1">
          <mxGeometry relative="1" as="geometry">
            <Array as="points">
              <mxPoint x="110" y="140" />
              <mxPoint x="110" y="140" />
            </Array>
          </mxGeometry>
        </mxCell>
        <mxCell id="xrplB6b8IGDxj66Je1dQ-55" style="edgeStyle=orthogonalEdgeStyle;rounded=1;orthogonalLoop=1;jettySize=auto;html=1;exitX=1;exitY=0.5;exitDx=0;exitDy=0;entryX=0;entryY=0.5;entryDx=0;entryDy=0;strokeWidth=3;curved=0;" edge="1" parent="1" source="xrplB6b8IGDxj66Je1dQ-2" target="xrplB6b8IGDxj66Je1dQ-6">
          <mxGeometry relative="1" as="geometry" />
        </mxCell>
        <mxCell id="xrplB6b8IGDxj66Je1dQ-56" style="edgeStyle=orthogonalEdgeStyle;rounded=1;orthogonalLoop=1;jettySize=auto;html=1;exitX=1;exitY=0.5;exitDx=0;exitDy=0;entryX=0;entryY=0.5;entryDx=0;entryDy=0;strokeWidth=3;curved=0;" edge="1" parent="1" source="xrplB6b8IGDxj66Je1dQ-2" target="xrplB6b8IGDxj66Je1dQ-31">
          <mxGeometry relative="1" as="geometry" />
        </mxCell>
        <mxCell id="xrplB6b8IGDxj66Je1dQ-57" style="edgeStyle=orthogonalEdgeStyle;rounded=1;orthogonalLoop=1;jettySize=auto;html=1;exitX=1;exitY=0.5;exitDx=0;exitDy=0;entryX=0;entryY=0.5;entryDx=0;entryDy=0;strokeWidth=3;curved=0;" edge="1" parent="1" source="xrplB6b8IGDxj66Je1dQ-2" target="xrplB6b8IGDxj66Je1dQ-3">
          <mxGeometry relative="1" as="geometry" />
        </mxCell>
        <mxCell id="xrplB6b8IGDxj66Je1dQ-2" value="LottoContorllerImpl" style="whiteSpace=wrap;html=1;rounded=1;" vertex="1" parent="1">
          <mxGeometry x="30" y="140" width="120" height="60" as="geometry" />
        </mxCell>
        <mxCell id="xrplB6b8IGDxj66Je1dQ-3" value="&lt;div&gt;&amp;lt;&amp;lt;interface&amp;gt;&amp;gt;&lt;/div&gt;LottoService" style="rounded=1;whiteSpace=wrap;html=1;" vertex="1" parent="1">
          <mxGeometry x="270" y="230" width="120" height="60" as="geometry" />
        </mxCell>
        <mxCell id="xrplB6b8IGDxj66Je1dQ-18" value="" style="edgeStyle=orthogonalEdgeStyle;rounded=0;orthogonalLoop=1;jettySize=auto;html=1;dashed=1;strokeWidth=3;" edge="1" parent="1" source="xrplB6b8IGDxj66Je1dQ-4" target="xrplB6b8IGDxj66Je1dQ-3">
          <mxGeometry relative="1" as="geometry" />
        </mxCell>
        <mxCell id="xrplB6b8IGDxj66Je1dQ-49" style="edgeStyle=orthogonalEdgeStyle;rounded=1;orthogonalLoop=1;jettySize=auto;html=1;exitX=0.5;exitY=1;exitDx=0;exitDy=0;entryX=0.5;entryY=0;entryDx=0;entryDy=0;strokeWidth=3;curved=0;" edge="1" parent="1" source="xrplB6b8IGDxj66Je1dQ-4" target="xrplB6b8IGDxj66Je1dQ-14">
          <mxGeometry relative="1" as="geometry" />
        </mxCell>
        <mxCell id="xrplB6b8IGDxj66Je1dQ-59" style="edgeStyle=orthogonalEdgeStyle;rounded=1;orthogonalLoop=1;jettySize=auto;html=1;exitX=0.5;exitY=1;exitDx=0;exitDy=0;entryX=0.5;entryY=0;entryDx=0;entryDy=0;strokeWidth=3;curved=0;" edge="1" parent="1" source="xrplB6b8IGDxj66Je1dQ-4" target="xrplB6b8IGDxj66Je1dQ-7">
          <mxGeometry relative="1" as="geometry" />
        </mxCell>
        <mxCell id="xrplB6b8IGDxj66Je1dQ-4" value="LottoServiceImpl" style="rounded=1;whiteSpace=wrap;html=1;" vertex="1" parent="1">
          <mxGeometry x="650" y="230" width="120" height="60" as="geometry" />
        </mxCell>
        <mxCell id="xrplB6b8IGDxj66Je1dQ-20" value="" style="edgeStyle=orthogonalEdgeStyle;rounded=0;orthogonalLoop=1;jettySize=auto;html=1;dashed=1;strokeWidth=3;" edge="1" parent="1" source="xrplB6b8IGDxj66Je1dQ-5" target="xrplB6b8IGDxj66Je1dQ-6">
          <mxGeometry relative="1" as="geometry" />
        </mxCell>
        <mxCell id="xrplB6b8IGDxj66Je1dQ-51" style="edgeStyle=orthogonalEdgeStyle;rounded=1;orthogonalLoop=1;jettySize=auto;html=1;exitX=1;exitY=0.5;exitDx=0;exitDy=0;entryX=0;entryY=0.5;entryDx=0;entryDy=0;curved=0;strokeWidth=3;" edge="1" parent="1" source="xrplB6b8IGDxj66Je1dQ-5" target="xrplB6b8IGDxj66Je1dQ-12">
          <mxGeometry relative="1" as="geometry" />
        </mxCell>
        <mxCell id="xrplB6b8IGDxj66Je1dQ-5" value="LottoOutputImpl" style="rounded=1;whiteSpace=wrap;html=1;" vertex="1" parent="1">
          <mxGeometry x="650" y="40" width="120" height="60" as="geometry" />
        </mxCell>
        <mxCell id="xrplB6b8IGDxj66Je1dQ-6" value="&amp;lt;&amp;lt;interface&amp;gt;&amp;gt;&lt;div&gt;LottoOutput&lt;/div&gt;" style="rounded=1;whiteSpace=wrap;html=1;strokeWidth=1;" vertex="1" parent="1">
          <mxGeometry x="270" y="40" width="120" height="60" as="geometry" />
        </mxCell>
        <mxCell id="xrplB6b8IGDxj66Je1dQ-7" value="&lt;div&gt;&amp;lt;&amp;lt;interface&amp;gt;&amp;gt;&lt;/div&gt;LottoGenerator" style="rounded=1;whiteSpace=wrap;html=1;" vertex="1" parent="1">
          <mxGeometry x="540" y="360" width="120" height="60" as="geometry" />
        </mxCell>
        <mxCell id="xrplB6b8IGDxj66Je1dQ-25" value="" style="edgeStyle=orthogonalEdgeStyle;rounded=0;orthogonalLoop=1;jettySize=auto;html=1;dashed=1;strokeWidth=3;" edge="1" parent="1" source="xrplB6b8IGDxj66Je1dQ-8" target="xrplB6b8IGDxj66Je1dQ-7">
          <mxGeometry relative="1" as="geometry" />
        </mxCell>
        <mxCell id="xrplB6b8IGDxj66Je1dQ-53" style="edgeStyle=orthogonalEdgeStyle;rounded=1;orthogonalLoop=1;jettySize=auto;html=1;exitX=1;exitY=0.5;exitDx=0;exitDy=0;entryX=0;entryY=0.5;entryDx=0;entryDy=0;curved=0;strokeWidth=3;" edge="1" parent="1" source="xrplB6b8IGDxj66Je1dQ-8" target="xrplB6b8IGDxj66Je1dQ-10">
          <mxGeometry relative="1" as="geometry" />
        </mxCell>
        <mxCell id="xrplB6b8IGDxj66Je1dQ-8" value="LottoGeneratorImpl" style="rounded=1;whiteSpace=wrap;html=1;" vertex="1" parent="1">
          <mxGeometry x="540" y="540" width="120" height="60" as="geometry" />
        </mxCell>
        <mxCell id="xrplB6b8IGDxj66Je1dQ-10" value="&lt;div&gt;&amp;lt;&amp;lt;interface&amp;gt;&amp;gt;&lt;/div&gt;LottoRepository" style="rounded=1;whiteSpace=wrap;html=1;" vertex="1" parent="1">
          <mxGeometry x="940" y="540" width="120" height="60" as="geometry" />
        </mxCell>
        <mxCell id="xrplB6b8IGDxj66Je1dQ-26" value="" style="edgeStyle=orthogonalEdgeStyle;rounded=0;orthogonalLoop=1;jettySize=auto;html=1;dashed=1;strokeWidth=3;" edge="1" parent="1" source="xrplB6b8IGDxj66Je1dQ-11" target="xrplB6b8IGDxj66Je1dQ-10">
          <mxGeometry relative="1" as="geometry" />
        </mxCell>
        <mxCell id="xrplB6b8IGDxj66Je1dQ-11" value="LottoRepositoryimpl" style="rounded=1;whiteSpace=wrap;html=1;" vertex="1" parent="1">
          <mxGeometry x="1150" y="540" width="120" height="60" as="geometry" />
        </mxCell>
        <mxCell id="xrplB6b8IGDxj66Je1dQ-12" value="&lt;div&gt;&amp;lt;&amp;lt;interface&amp;gt;&amp;gt;&lt;/div&gt;LottoWinning" style="rounded=1;whiteSpace=wrap;html=1;" vertex="1" parent="1">
          <mxGeometry x="940" y="40" width="120" height="60" as="geometry" />
        </mxCell>
        <mxCell id="xrplB6b8IGDxj66Je1dQ-27" value="" style="edgeStyle=orthogonalEdgeStyle;rounded=0;orthogonalLoop=1;jettySize=auto;html=1;dashed=1;strokeWidth=3;" edge="1" parent="1" source="xrplB6b8IGDxj66Je1dQ-13" target="xrplB6b8IGDxj66Je1dQ-12">
          <mxGeometry relative="1" as="geometry" />
        </mxCell>
        <mxCell id="xrplB6b8IGDxj66Je1dQ-13" value="LottoWinningImpl" style="rounded=1;whiteSpace=wrap;html=1;" vertex="1" parent="1">
          <mxGeometry x="1160" y="40" width="120" height="60" as="geometry" />
        </mxCell>
        <mxCell id="xrplB6b8IGDxj66Je1dQ-14" value="&lt;div&gt;&amp;lt;&amp;lt;interface&amp;gt;&amp;gt;&lt;/div&gt;LottoComparator" style="rounded=1;whiteSpace=wrap;html=1;" vertex="1" parent="1">
          <mxGeometry x="750" y="360" width="120" height="60" as="geometry" />
        </mxCell>
        <mxCell id="xrplB6b8IGDxj66Je1dQ-52" style="edgeStyle=orthogonalEdgeStyle;rounded=1;orthogonalLoop=1;jettySize=auto;html=1;exitX=0.5;exitY=0;exitDx=0;exitDy=0;curved=0;strokeWidth=3;" edge="1" parent="1" source="xrplB6b8IGDxj66Je1dQ-15" target="xrplB6b8IGDxj66Je1dQ-12">
          <mxGeometry relative="1" as="geometry" />
        </mxCell>
        <mxCell id="xrplB6b8IGDxj66Je1dQ-54" style="edgeStyle=orthogonalEdgeStyle;rounded=1;orthogonalLoop=1;jettySize=auto;html=1;exitX=0.5;exitY=1;exitDx=0;exitDy=0;entryX=0.5;entryY=0;entryDx=0;entryDy=0;curved=0;strokeWidth=3;" edge="1" parent="1" source="xrplB6b8IGDxj66Je1dQ-15" target="xrplB6b8IGDxj66Je1dQ-10">
          <mxGeometry relative="1" as="geometry" />
        </mxCell>
        <mxCell id="xrplB6b8IGDxj66Je1dQ-67" style="edgeStyle=orthogonalEdgeStyle;rounded=1;orthogonalLoop=1;jettySize=auto;html=1;exitX=0;exitY=0.5;exitDx=0;exitDy=0;curved=0;strokeWidth=3;dashed=1;" edge="1" parent="1" source="xrplB6b8IGDxj66Je1dQ-15" target="xrplB6b8IGDxj66Je1dQ-14">
          <mxGeometry relative="1" as="geometry" />
        </mxCell>
        <mxCell id="xrplB6b8IGDxj66Je1dQ-15" value="LottoComparatorImpl" style="rounded=1;whiteSpace=wrap;html=1;" vertex="1" parent="1">
          <mxGeometry x="940" y="360" width="120" height="60" as="geometry" />
        </mxCell>
        <mxCell id="xrplB6b8IGDxj66Je1dQ-31" value="&lt;div&gt;&amp;lt;&amp;lt;interface&amp;gt;&amp;gt;&lt;/div&gt;LottoInput" style="rounded=1;whiteSpace=wrap;html=1;" vertex="1" parent="1">
          <mxGeometry x="270" y="140" width="120" height="60" as="geometry" />
        </mxCell>
        <mxCell id="xrplB6b8IGDxj66Je1dQ-33" value="" style="edgeStyle=orthogonalEdgeStyle;rounded=0;orthogonalLoop=1;jettySize=auto;html=1;dashed=1;strokeWidth=3;" edge="1" parent="1" source="xrplB6b8IGDxj66Je1dQ-32" target="xrplB6b8IGDxj66Je1dQ-31">
          <mxGeometry relative="1" as="geometry" />
        </mxCell>
        <mxCell id="xrplB6b8IGDxj66Je1dQ-32" value="LottoInputImpl" style="rounded=1;whiteSpace=wrap;html=1;" vertex="1" parent="1">
          <mxGeometry x="650" y="140" width="120" height="60" as="geometry" />
        </mxCell>
      </root>
    </mxGraphModel>
  </diagram>
</mxfile>
